<svg id="svg-cart" viewBox="0 0 20 20" fill="currentColor" xmlns="http://www.w3.org/2000/svg">
<path fill-rule="evenodd" clip-rule="evenodd" d="M9.99958 3C11.7164 3 13.1095 4.2144 13.1129 5.71387H14.1704C14.9026 5.71387 15.5 6.32935 15.5 7.0817V15.6322C15.5 16.3854 14.9026 17 14.1704 17H5.82955C5.09741 17 4.5 16.3854 4.5 15.6322V7.0817C4.5 6.32848 5.09825 5.71387 5.82955 5.71387H6.88711C6.8905 4.2144 8.28361 3 10.0004 3H9.99958ZM7.61417 5.71387H12.3841C12.3808 4.56573 11.3139 3.63641 9.99873 3.63641C8.68358 3.63641 7.61756 4.5666 7.61332 5.71387H7.61417Z"/>
</svg>