<svg id="svg-close" viewBox="0 0 20 20" fill="currentColor" xmlns="http://www.w3.org/2000/svg">
<path fill-rule="evenodd" clip-rule="evenodd" d="M7.45844 8.62506L3.24281 4.40496C3.08794 4.25265 3.00918 4.05307 3.0013 3.85086V3.79834C3.00655 3.59613 3.08794 3.39655 3.24281 3.24424C3.39243 3.09455 3.58669 3.01313 3.78356 3.00263H3.86228C4.05915 3.01051 4.25341 3.09192 4.40303 3.24161L9.99934 8.84042H10.002L11.38 7.4591L15.5983 3.24161C15.7505 3.08667 15.95 3.00788 16.1522 3H16.2046C16.4068 3.00525 16.6063 3.08667 16.7585 3.24161C16.9107 3.3913 16.9895 3.58563 17 3.78258V3.86136C16.9895 4.05832 16.9107 4.25265 16.7585 4.40234L11.1622 10.0011L16.7559 15.6026C16.916 15.7601 16.9974 15.9728 16.9974 16.1803C16.9974 16.3904 16.916 16.6031 16.7559 16.7607C16.4356 17.0785 15.9159 17.0811 15.5957 16.7607L11.3958 12.5616L9.99671 11.1619L4.39778 16.7581C4.23766 16.9183 4.02764 16.9996 3.82028 16.9996C3.61028 16.9996 3.39767 16.9183 3.24018 16.7581C2.91994 16.4377 2.91994 15.9177 3.24018 15.5973L7.43479 11.3956L8.83389 9.9959L7.45581 8.61458L7.45844 8.62506Z" fill="#E6E6E6"/>
</svg>