<svg id="svg-in" viewBox="0 0 20 20" fill="currentColor" xmlns="http://www.w3.org/2000/svg">
<path fill-rule="evenodd" clip-rule="evenodd" d="M7.70157 7.71201H10.4465V9.00888C11.0306 8.15551 11.9912 7.60954 13.0885 7.60954H13.8431C15.5938 7.60954 17 9.04416 17 10.7509V17H14.255V11.9806C14.2213 10.9222 13.5004 10.1025 12.4352 10.1025C11.3716 10.1025 10.4803 10.9222 10.4448 11.9806V17H7.69988V7.71201H7.70157ZM4.64766 3C5.57446 3 6.32909 3.75089 6.32909 4.67314C6.32909 5.59539 5.57446 6.34628 4.64766 6.34628C3.72085 6.34628 3 5.59539 3 4.67314C3 3.75089 3.71916 3 4.64766 3ZM3.27517 7.71201H6.05391V17H3.27517V7.71201Z"/>
</svg>