<svg id="svg-instagram" viewBox="0 0 20 20" fill="currentColor" xmlns="http://www.w3.org/2000/svg">
<path d="M16.9664 7.11666C16.9328 6.3723 16.8135 5.8615 16.6404 5.41791C16.4622 4.94744 16.1883 4.52569 15.8304 4.17619C15.4809 3.81997 15.0557 3.5444 14.5919 3.36965C14.1466 3.19826 13.6374 3.07729 12.8929 3.04369C12.1434 3.0084 11.9048 3 10.0042 3C8.10359 3 7.86496 3.0084 7.11715 3.04032C6.3727 3.07393 5.86184 3.19322 5.4182 3.36629C4.94767 3.5444 4.52587 3.81829 4.17633 4.17619C3.82175 4.52569 3.54447 4.95079 3.36971 5.41455C3.19662 5.85982 3.0773 6.36894 3.04369 7.1133C3.0084 7.8627 3 8.10129 3 10.0017C3 11.9021 3.0084 12.1407 3.04033 12.8867C3.07394 13.6311 3.19325 14.1419 3.36634 14.5855C3.54447 15.0559 3.82007 15.4777 4.17465 15.8272C4.52587 16.1834 4.94934 16.459 5.41484 16.6337C5.86016 16.8051 6.36934 16.9261 7.11379 16.9597C7.85992 16.9933 8.09854 17 10.0008 17C11.9014 17 12.1401 16.9916 12.8862 16.9597C13.6307 16.9261 14.1415 16.8068 14.5852 16.6337C15.5262 16.2691 16.2707 15.5264 16.6337 14.5855C16.8051 14.1402 16.9261 13.6311 16.9597 12.8867C16.9916 12.1407 17 11.9021 17 10.0017C17 8.10129 16.9966 7.8627 16.9647 7.11498L16.9664 7.11666ZM14.5835 6.26307C14.5835 6.72683 14.2071 7.10321 13.7432 7.10321C13.2794 7.10321 12.903 6.72683 12.903 6.26307C12.903 5.79932 13.2794 5.42294 13.7432 5.42294C14.2071 5.42294 14.5835 5.79932 14.5835 6.26307ZM10.0042 6.40589C8.01788 6.40589 6.40632 8.01727 6.40632 10.0034C6.40632 11.9894 8.01788 13.6008 10.0042 13.6008C11.9905 13.6008 13.6021 11.9894 13.6021 10.0034C13.6021 8.01727 11.9905 6.40589 10.0042 6.40589ZM10.0042 12.3373C8.71528 12.3373 7.67002 11.2921 7.67002 10.0034C7.67002 8.71459 8.71528 7.66946 10.0042 7.66946C11.2931 7.66946 12.3384 8.71459 12.3384 10.0034C12.3384 11.2921 11.2931 12.3373 10.0042 12.3373ZM15.706 12.8346C15.6758 13.5185 15.5615 13.8882 15.4657 14.1335C15.2305 14.7434 14.7465 15.2273 14.1365 15.4625C13.8911 15.5583 13.5181 15.6726 12.8375 15.7028C12.0997 15.7364 11.8779 15.7432 10.0092 15.7432C8.14056 15.7432 7.91706 15.7348 7.18101 15.7028C6.49706 15.6726 6.12736 15.5583 5.88201 15.4625C5.57785 15.35 5.30224 15.1735 5.07874 14.94C4.84516 14.7132 4.66871 14.4393 4.55612 14.1368C4.46033 13.8898 4.34606 13.5185 4.31581 12.8363C4.2822 12.0986 4.27548 11.8769 4.27548 10.0084C4.27548 8.13994 4.28388 7.91479 4.31581 7.18051C4.34606 6.49664 4.46033 6.12697 4.55612 5.88165C4.66871 5.57752 4.84516 5.30197 5.08211 5.07681C5.30897 4.84493 5.58288 4.66683 5.88537 4.55425C6.13239 4.45847 6.50378 4.34253 7.18605 4.31396C7.92377 4.28036 8.1456 4.27364 10.0143 4.27364C11.8846 4.27364 12.1065 4.28204 12.8425 4.31396C13.5265 4.34421 13.8962 4.45847 14.1432 4.55425C14.4457 4.66683 14.723 4.84325 14.9465 5.07681C15.1801 5.30365 15.3565 5.57752 15.4691 5.88165C15.5649 6.12697 15.6792 6.5 15.7094 7.18051C15.7413 7.91983 15.7497 8.14162 15.7497 10.0084C15.7497 11.8769 15.7413 12.0953 15.7094 12.8329L15.706 12.8346Z"/>
</svg>