<svg id="svg-notify" viewBox="0 0 20 20" fill="currentColor" xmlns="http://www.w3.org/2000/svg">
<path d="M15.0704 16.032C13.711 15.7511 11.9098 15.6009 9.99636 15.6009C8.08209 15.6009 6.27768 15.7551 4.92235 16.032C3.46524 16.3324 3.10177 16.6498 3.02019 16.7594C3.01615 16.7757 3.00888 16.7911 3 16.8041C3.02423 16.8569 3.26331 17.2271 4.92638 17.5689C6.28575 17.849 8.08695 18 10.0004 18C11.9147 18 13.7191 17.8457 15.0744 17.5689C16.8506 17.2027 17 16.8081 17 16.8C16.9919 16.7919 16.8465 16.3973 15.0704 16.032ZM9.99233 14.9497C11.9712 14.9497 13.8322 15.1121 15.24 15.4052C15.8143 15.527 16.2884 15.6617 16.6527 15.8119L15.572 12.6967C15.3862 12.16 15.2917 11.5966 15.2925 11.0291V9.81286C15.2925 9.7682 15.2885 9.72274 15.2885 9.6789C15.2562 8.33359 14.6916 7.05648 13.7183 6.13173C12.7515 5.19562 11.4599 4.67357 10.1175 4.67601H9.8744C8.53037 4.67276 7.23723 5.1948 6.2696 6.13173C5.30035 7.0581 4.73658 8.3344 4.70346 9.6789C4.70346 9.72355 4.69538 9.7682 4.69538 9.81286V11.0128C4.69861 11.5787 4.60734 12.1414 4.42399 12.6764L3.34408 15.8079C3.70836 15.6577 4.17764 15.5229 4.74788 15.4052C6.15248 15.108 8.01748 14.9497 9.99233 14.9497ZM10.1216 4.02081C10.5141 4.02081 10.9058 4.05896 11.2911 4.13528V3.28523C11.2911 2.57726 10.7007 2 9.99636 2C9.29204 2 8.70161 2.57726 8.70161 3.28523V4.13528C9.08931 4.05977 9.48428 4.02162 9.87925 4.02081H10.1216Z"/>
</svg>
