<svg id="svg-plus" viewBox="0 0 20 20" fill="currentColor" xmlns="http://www.w3.org/2000/svg">
<path fill-rule="evenodd" clip-rule="evenodd" d="M9.39923 7.96835L9.40068 3.60143C9.39923 3.44236 9.4617 3.29781 9.56268 3.18958L9.58955 3.16271C9.69707 3.06174 9.84236 3 10.0007 3C10.1576 3 10.2993 3.05884 10.4053 3.15544L10.446 3.19684C10.5434 3.30362 10.6022 3.44527 10.6022 3.60216V9.39711H10.6037H12.0319L16.3992 9.39856C16.5583 9.39711 16.7029 9.45958 16.8111 9.56054L16.838 9.58814C16.939 9.69564 17.0007 9.84019 17 9.99927C17 10.1562 16.9411 10.2978 16.8445 10.4039L16.8031 10.4445C16.6971 10.5419 16.5547 10.6007 16.3985 10.6007H10.6029V10.6014V10.6029L10.6015 16.3993C10.6015 16.5642 10.5339 16.716 10.4264 16.8235C10.3175 16.9324 10.1656 17 10.0007 17C9.66874 16.9978 9.39923 16.7291 9.39923 16.3986L9.39705 12.0513V10.6029L3.60076 10.6014C3.43586 10.6014 3.28403 10.5339 3.17652 10.4264C3.06755 10.3174 3 10.1656 3 10.0007C3.00145 9.66877 3.27023 9.39929 3.60149 9.39929L7.94925 9.39783H9.39705V7.9698L9.39923 7.96835Z"/>
</svg>