<svg id="svg-share" viewBox="0 0 20 20" fill="currentColor" xmlns="http://www.w3.org/2000/svg">
<path d="M13.9999 12.903C13.4932 12.903 13.0365 13.1103 12.69 13.4441L7.94013 10.524C7.9769 10.366 8.00013 10.2008 8.00013 10.0318C8.00013 9.8633 7.9769 9.69803 7.94013 9.5397L12.6401 6.64772C12.9966 6.99907 13.4735 7.21697 13.9999 7.21697C15.1031 7.21697 16 6.27148 16 5.10849C16 3.94549 15.1035 3 13.9999 3C12.8967 3 11.9999 3.94549 11.9999 5.10849C11.9999 5.27702 12.0231 5.44229 12.0599 5.60062L7.35989 8.4926C7.00339 8.14125 6.5265 7.92334 6.00006 7.92334C4.89687 7.92334 4 8.86843 4 10.0318C4 11.1948 4.89687 12.1403 6.00006 12.1403C6.5265 12.1403 7.00339 11.9224 7.35989 11.5711L12.1098 14.4912C12.0765 14.6389 12.0564 14.7936 12.0564 14.9515C12.0564 16.0827 12.9265 17 13.9995 17C15.0729 17 15.9427 16.0827 15.9427 14.9515C15.9427 13.8199 15.0725 12.903 13.9995 12.903H13.9999Z"/>
</svg>