<svg id="svg-swipe" viewBox="0 0 20 20" fill="none" xmlns="http://www.w3.org/2000/svg">
<path d="M7.37426 4.21765L7.78082 3.11306C7.81357 3.02352 7.91273 2.97784 8.00198 3.0106C8.09152 3.04365 8.13719 3.14251 8.10444 3.23206L7.83341 3.96885C8.70452 3.44961 9.47706 3.2612 10.1309 3.2615C10.8993 3.2615 11.4969 3.52022 11.8993 3.77834C12.3022 4.03675 12.5135 4.29427 12.5216 4.30419C12.5817 4.37781 12.5706 4.48658 12.4969 4.54668C12.4651 4.57282 12.4263 4.58544 12.3882 4.58544C12.338 4.58544 12.2887 4.56381 12.2545 4.52204C12.2545 4.52204 12.2545 4.52204 12.2536 4.52114C12.2379 4.50221 12.039 4.27083 11.6787 4.04697C11.3181 3.82311 10.7989 3.60676 10.1306 3.60646C9.54167 3.60646 8.83192 3.77413 8.00258 4.26933L8.72434 4.54157C8.81329 4.57523 8.85836 4.67469 8.82471 4.76363C8.79857 4.83274 8.73276 4.87511 8.66335 4.87511C8.64322 4.87511 8.62278 4.8715 8.60265 4.86399L7.47493 4.43821C7.38628 4.40485 7.34121 4.30629 7.37396 4.21735L7.37426 4.21765Z" fill="currentColor"/>
<path d="M12.8997 11.7138C12.6464 11.6708 12.4045 11.8424 12.3612 12.0954L12.226 12.8911C12.2119 12.9743 12.1316 13.032 12.0475 13.0176C11.9618 13.0029 11.9045 12.922 11.9189 12.8388L12.2106 11.1233C12.2539 10.8688 12.0835 10.6284 11.8287 10.5849C11.5754 10.5419 11.3341 10.712 11.2906 10.9668L11.0511 12.3746C11.0367 12.459 10.9558 12.5152 10.8723 12.5011C10.7869 12.4866 10.7293 12.4064 10.7437 12.3223L11.5147 7.79094C11.5577 7.53763 11.3876 7.29604 11.1325 7.25277C10.878 7.2095 10.6373 7.38108 10.5943 7.63439L9.82329 12.1657C9.80887 12.2502 9.72864 12.3066 9.643 12.2919C9.55947 12.2775 9.50177 12.1979 9.5162 12.1134L10.1827 8.1969C10.2259 7.94209 10.0541 7.7017 9.80076 7.65843C9.54624 7.61516 9.30585 7.78524 9.26258 8.04035L8.33499 13.4915L7.85751 12.5341C7.72139 12.2198 7.37794 12.0626 7.08677 12.1816C6.7962 12.3024 6.66969 12.6546 6.80311 12.9686C6.80311 12.9686 7.54741 14.6558 7.86442 15.3776C8.18053 16.1006 8.78692 16.7265 10.082 16.947C12.2251 17.3115 12.6983 15.6898 12.7828 15.1952L13.2837 12.2526C13.327 11.9992 13.1548 11.7574 12.9 11.7138H12.8997Z" stroke="currentColor" stroke-width="0.79968" stroke-miterlimit="2.61313" stroke-linecap="round" stroke-linejoin="round"/>
</svg>