<svg id="svg-tiktok" viewBox="0 0 20 20" fill="currentColor" xmlns="http://www.w3.org/2000/svg">
<path fill-rule="evenodd" clip-rule="evenodd" d="M15.3129 6.31774C14.6555 6.22702 14.0887 5.86082 13.6109 5.31318C13.0441 4.67483 12.7146 3.82145 12.7442 3H10.3864V12.587C10.3864 13.7125 9.49171 14.6263 8.35646 14.6263C7.70069 14.6263 7.10257 14.2921 6.71536 13.7747C6.47645 13.4404 6.35783 13.0137 6.35783 12.587C6.35783 11.4615 7.25417 10.5476 8.35811 10.5476C8.56736 10.5476 8.7766 10.5779 8.9562 10.6383V8.20422C8.7766 8.17399 8.56736 8.14375 8.35811 8.14375C8.32845 8.14375 8.29879 8.14375 8.26913 8.14375C5.88165 8.20423 4 10.1831 4 12.587C4 13.7444 4.44818 14.8078 5.16492 15.6007C5.97063 16.4524 7.10588 17 8.35811 17C10.7769 17 12.7458 15.0211 12.7458 12.587V7.59611C13.6422 8.41757 14.8054 8.81233 16 8.72161V6.31774C15.7611 6.37821 15.5222 6.37821 15.3129 6.31774Z"/>
</svg>