<svg id="svg-youtube" viewBox="0 0 20 20" fill="currentColor" xmlns="http://www.w3.org/2000/svg">
<path fill-rule="evenodd" clip-rule="evenodd" d="M4.30905 3.2302C6.15625 3.07729 8.33769 3 10.0008 3C11.6639 3 13.8082 3.07729 15.6926 3.2302C17.874 3.42343 18.9833 3.8082 19.2788 6.07656C19.4257 7.11497 19.5 8.53816 19.5 9.99999C19.5 11.4618 19.4257 12.922 19.2788 13.9234C18.9833 16.2321 17.874 16.5766 15.6926 16.7698C13.8082 16.9614 11.6639 17 10.0008 17C8.33769 17 6.15625 16.9614 4.30905 16.7698C2.12762 16.5766 0.98118 16.2304 0.685693 13.9234C0.574279 12.922 0.5 11.4618 0.5 9.99999C0.5 8.53816 0.574279 7.11497 0.685693 6.07656C0.98118 3.8082 2.12762 3.42175 4.30905 3.2302ZM8.07934 7.03936L13.0332 10.0017L8.07934 13.0009V7.03936Z"/>
</svg>